<svg width="3840" height="22887" viewBox="0 0 3840 22887" fill="none" xmlns="http://www.w3.org/2000/svg">
<g clip-path="url(#clip0_315_2)">
<rect width="3840" height="22887" fill="white"/>
<path d="M0 1075L3840 259" stroke="#5648EE" stroke-width="8"/>
<path d="M0 2233L3840 1417" stroke="#5648EE" stroke-width="2"/>
<path d="M0 3049L3840 2233" stroke="#5648EE" stroke-width="2"/>
<path d="M0 3865L3840 3049" stroke="#5648EE" stroke-width="2"/>
<path d="M0 4039L3840 3223" stroke="#5648EE" stroke-width="2"/>
<path d="M0 4855L3840 4039" stroke="#5648EE" stroke-width="2"/>
<path d="M0 5170L3840 4354" stroke="#5648EE" stroke-width="2"/>
<path d="M0 5419L3840 4603" stroke="#5648EE" stroke-width="2"/>
<path d="M0 5671L3840 4855" stroke="#5648EE" stroke-width="2"/>
<path d="M0 5884L3840 5068" stroke="#5648EE" stroke-width="2"/>
<path d="M0 6052L3840 5236" stroke="#5648EE" stroke-width="2"/>
<path d="M0 6208L3840 5392" stroke="#5648EE" stroke-width="2"/>
<path d="M0 6340L3840 5524" stroke="#5648EE" stroke-width="2"/>
<path d="M0 6439L3840 5623" stroke="#5648EE" stroke-width="2"/>
<path d="M0 6517L3840 5701" stroke="#5648EE" stroke-width="2"/>
<path d="M0 6580L3840 5764" stroke="#5648EE" stroke-width="2"/>
<path d="M0 6631L3840 5815" stroke="#5648EE" stroke-width="2"/>
<path d="M0 6676L3840 5860" stroke="#5648EE" stroke-width="2"/>
<path d="M0 6718L3840 5902" stroke="#5648EE" stroke-width="2"/>
<path d="M0 6757L3840 5941" stroke="#5648EE" stroke-width="2"/>
<path d="M0 6787L3840 5971" stroke="#5648EE" stroke-width="2"/>
<path d="M0 6820L3840 6004" stroke="#5648EE" stroke-width="2"/>
<path d="M0 6847L3840 6031" stroke="#5648EE" stroke-width="2"/>
<path d="M0 6868L3840 6052" stroke="#5648EE" stroke-width="2"/>
<path d="M0 6901L3840 6085" stroke="#5648EE" stroke-width="2"/>
<path d="M0 6913L3840 6097" stroke="#5648EE" stroke-width="2"/>
<path d="M0 6925L3840 6109" stroke="#5648EE" stroke-width="2"/>
<path d="M0 6937L3840 6121" stroke="#5648EE" stroke-width="2"/>
<path d="M0 6946L3840 6130" stroke="#5648EE" stroke-width="2"/>
<path d="M0 6955L3840 6139" stroke="#5648EE" stroke-width="2"/>
<path d="M0 6961L3840 6145" stroke="#5648EE" stroke-width="2"/>
<path d="M0 6970L3840 6154" stroke="#5648EE" stroke-width="2"/>
<path d="M0 6985L3840 6169" stroke="#5648EE" stroke-width="2"/>
<path d="M0 6997L3840 6181" stroke="#5648EE" stroke-width="2"/>
<path d="M0 7012L3840 6196" stroke="#5648EE" stroke-width="2"/>
<path d="M0 7042L3840 6226" stroke="#5648EE" stroke-width="2"/>
<path d="M0 7024L3840 6208" stroke="#5648EE" stroke-width="2"/>
<path d="M0 7054L3840 6238" stroke="#5648EE" stroke-width="2"/>
<path d="M0 6976L3840 6160" stroke="#5648EE" stroke-width="2"/>
<path d="M0 7003L3840 6187" stroke="#5648EE" stroke-width="2"/>
<path d="M0 7018L3840 6202" stroke="#5648EE" stroke-width="2"/>
<path d="M0 7048L3840 6232" stroke="#5648EE" stroke-width="2"/>
<path d="M0 6991L3840 6175" stroke="#5648EE" stroke-width="2"/>
<path d="M0 7030L3840 6214" stroke="#5648EE" stroke-width="2"/>
<path d="M0 7060L3840 6244" stroke="#5648EE" stroke-width="2"/>
<path d="M0 7084L3840 6268" stroke="#5648EE" stroke-width="10"/>
<path d="M0 7120L3840 6304" stroke="#5648EE" stroke-width="10"/>
<path d="M0 7174L3840 6358" stroke="#5648EE" stroke-width="20"/>
<path d="M0 7243L3840 6427" stroke="#5648EE" stroke-width="20"/>
<path d="M0 7330L3840 6514" stroke="#5648EE" stroke-width="30"/>
<path d="M0 7435L3840 6619" stroke="#5648EE" stroke-width="30"/>
<path d="M0 6889L3840 6073" stroke="#5648EE" stroke-width="2"/>
<path d="M0 7557L3840 6738V8211H0V7557Z" fill="#5648EE"/>
<path d="M-19 8204.57L3896 7370V8871H-19V8204.57Z" fill="#FCFCFC"/>
<path d="M-61 7669L4188 6766" stroke="white" stroke-width="157"/>
<path d="M-61 7854L4188 6951" stroke="white" stroke-width="183"/>
<path d="M-61 8080L4188 7177" stroke="white" stroke-width="249"/>
<path d="M-608 8557.7L4485.7 7475" stroke="#5648EE" stroke-width="7"/>
<path d="M-608 8751.7L4485.7 7669" stroke="#5648EE" stroke-width="14"/>
<path d="M-608 8964.7L4485.7 7882" stroke="#5648EE" stroke-width="25"/>
<path d="M-538 9162.7L4555.7 8080" stroke="#5648EE" stroke-width="47"/>
<path d="M-538 9357.7L4555.7 8275" stroke="#5648EE" stroke-width="76"/>
<path d="M-483 9494.7L4610.7 8412" stroke="#5648EE" stroke-width="76"/>
<path d="M-462 9640.7L4631.7 8558" stroke="#5648EE" stroke-width="104"/>
<path d="M-462 9775.7L4631.7 8693" stroke="#5648EE" stroke-width="113"/>
<path d="M-462 9907.7L4631.7 8825" stroke="#5648EE" stroke-width="133"/>
<path d="M-462 10068.7L4631.7 8986" stroke="#5648EE" stroke-width="170"/>
<path d="M-462 10224.7L4631.7 9142" stroke="#5648EE" stroke-width="170"/>
<path d="M-330 11278.7L4763.7 10196" stroke="#5648EE" stroke-width="1000"/>
<path d="M-330 12237.7L4763.7 11155" stroke="#5648EE" stroke-width="1000"/>
<path d="M-462 10406.7L4631.7 9324" stroke="#5648EE" stroke-width="170"/>
<path d="M-462 10873.7L4631.7 9791" stroke="white" stroke-width="170"/>
<path d="M-462 10609.7L4631.7 9527" stroke="#5648EE" stroke-width="170"/>
<path d="M-462 10726.7L4631.7 9644" stroke="#5648EE" stroke-width="170"/>
<path d="M-462 10887.7L4631.7 9805" stroke="#5648EE" stroke-width="170"/>
<path d="M-3 11350L3837 10534" stroke="white" stroke-width="2"/>
<path d="M-3 10618L3837 9802" stroke="white" stroke-width="13"/>
<path d="M-3 10794L3837 9978" stroke="white" stroke-width="10"/>
<path d="M-3 10903L3837 10087" stroke="white" stroke-width="8"/>
<path d="M-3 10984L3837 10168" stroke="white" stroke-width="4"/>
<path d="M-3 11060L3837 10244" stroke="white"/>
<path d="M-3 11113L3837 10297" stroke="white"/>
<path d="M-3 11155L3837 10339" stroke="white"/>
<path d="M-3 11179L3837 10363" stroke="white"/>
<path d="M-3 11197L3837 10381" stroke="white"/>
<path d="M-3 11218L3837 10402" stroke="white"/>
<path d="M-3 11250L3837 10434" stroke="white"/>
<path d="M-3 11295L3837 10479" stroke="white"/>
<path d="M-3 11449L3837 10633" stroke="white" stroke-width="2"/>
<path d="M-3 11527L3837 10711" stroke="white" stroke-width="2"/>
<path d="M-3 11590L3837 10774" stroke="white" stroke-width="2"/>
<path d="M-3 11641L3837 10825" stroke="white" stroke-width="2"/>
<path d="M-3 11686L3837 10870" stroke="white" stroke-width="2"/>
<path d="M-3 11728L3837 10912" stroke="white" stroke-width="2"/>
<path d="M-3 11767L3837 10951" stroke="white" stroke-width="2"/>
<path d="M-3 11797L3837 10981" stroke="white" stroke-width="2"/>
<path d="M-3 11830L3837 11014" stroke="white" stroke-width="2"/>
<path d="M-3 11857L3837 11041" stroke="white" stroke-width="2"/>
<path d="M-3 11878L3837 11062" stroke="white" stroke-width="2"/>
<path d="M-3 11911L3837 11095" stroke="white" stroke-width="2"/>
<path d="M-3 11923L3837 11107" stroke="white" stroke-width="2"/>
<path d="M-3 11935L3837 11119" stroke="white" stroke-width="2"/>
<path d="M-3 11947L3837 11131" stroke="white" stroke-width="2"/>
<path d="M-3 11956L3837 11140" stroke="white" stroke-width="2"/>
<path d="M-3 11965L3837 11149" stroke="white" stroke-width="2"/>
<path d="M-3 11971L3837 11155" stroke="white" stroke-width="2"/>
<path d="M-3 11980L3837 11164" stroke="white" stroke-width="2"/>
<path d="M-3 11995L3837 11179" stroke="white" stroke-width="2"/>
<path d="M-3 12007L3837 11191" stroke="white" stroke-width="2"/>
<path d="M-3 12022L3837 11206" stroke="white" stroke-width="2"/>
<path d="M-3 12052L3837 11236" stroke="white" stroke-width="2"/>
<path d="M-3 12034L3837 11218" stroke="white" stroke-width="2"/>
<path d="M-3 12064L3837 11248" stroke="white" stroke-width="2"/>
<path d="M-3 11986L3837 11170" stroke="white" stroke-width="2"/>
<path d="M-3 12013L3837 11197" stroke="white" stroke-width="2"/>
<path d="M-3 12028L3837 11212" stroke="white" stroke-width="2"/>
<path d="M-3 12058L3837 11242" stroke="white" stroke-width="2"/>
<path d="M-3 12001L3837 11185" stroke="white" stroke-width="2"/>
<path d="M-3 12040L3837 11224" stroke="white" stroke-width="2"/>
<path d="M-3 12070L3837 11254" stroke="white" stroke-width="2"/>
<path d="M-3 12094L3837 11278" stroke="white" stroke-width="10"/>
<path d="M-3 12130L3837 11314" stroke="white" stroke-width="10"/>
<path d="M-3 12184L3837 11368" stroke="white" stroke-width="20"/>
<path d="M-3 12253L3837 11437" stroke="white" stroke-width="20"/>
<path d="M-3 12340L3837 11524" stroke="white" stroke-width="30"/>
<path d="M-3 12445L3837 11629" stroke="white" stroke-width="30"/>
<path d="M-3 11899L3837 11083" stroke="white" stroke-width="2"/>
<path d="M-3 12567L3837 11748V13221H-3V12567Z" fill="white"/>
<path d="M-22 13214.6L3893 12380V13881H-22V13214.6Z" fill="#5648EE"/>
<path d="M-78 13860.6L3837 13026V14527H-78V13860.6Z" fill="#5648EE"/>
<path d="M-1519 14924.7L5268 13478V16080H-1519V14924.7Z" fill="#5648EE"/>
<path d="M-1514 15421.7L5273 13975V16577H-1514V15421.7Z" fill="#5648EE"/>
<path d="M-1514 16563.7L5273 15117V17719H-1514V16563.7Z" fill="#5648EE"/>
<path d="M-1658 18003.7L5129 16557V19159H-1658V18003.7Z" fill="#5648EE"/>
<path d="M-64 12679L4185 11776" stroke="#5648EE" stroke-width="157"/>
<path d="M-64 12864L4185 11961" stroke="#5648EE" stroke-width="183"/>
<path d="M-64 13090L4185 12187" stroke="#5648EE" stroke-width="249"/>
<path d="M-611 13567.7L4482.7 12485" stroke="white" stroke-width="7"/>
<path d="M-611 13761.7L4482.7 12679" stroke="white" stroke-width="14"/>
<path d="M-611 13974.7L4482.7 12892" stroke="white" stroke-width="25"/>
<path d="M-541 14172.7L4552.7 13090" stroke="white" stroke-width="47"/>
<path d="M-541 14367.7L4552.7 13285" stroke="white" stroke-width="76"/>
<path d="M-486 14504.7L4607.7 13422" stroke="white" stroke-width="76"/>
<path d="M-465 14650.7L4628.7 13568" stroke="white" stroke-width="104"/>
<path d="M-465 14785.7L4628.7 13703" stroke="white" stroke-width="113"/>
<path d="M-465 14917.7L4628.7 13835" stroke="white" stroke-width="133"/>
<path d="M-451 15056.7L4642.7 13974" stroke="white" stroke-width="133"/>
<path d="M-451 15191.7L4642.7 14109" stroke="white" stroke-width="133"/>
<path d="M-451 15332.7L4642.7 14250" stroke="white" stroke-width="133"/>
<path d="M-451 15458.7L4642.7 14376" stroke="white" stroke-width="133"/>
<path d="M-451 15595.7L4642.7 14513" stroke="white" stroke-width="133"/>
<path d="M-451 15673.7L4642.7 14591" stroke="white" stroke-width="133"/>
<path d="M-451 15811.7L4642.7 14729" stroke="white" stroke-width="133"/>
<path d="M-451 15949.7L4642.7 14867" stroke="white" stroke-width="133"/>
<path d="M-451 16615.7L4642.7 15533" stroke="white" stroke-width="133"/>
<path d="M-451 16051.7L4642.7 14969" stroke="white" stroke-width="60"/>
<path d="M-451 16512.7L4642.7 15430" stroke="white" stroke-width="60"/>
<path d="M-451 16107.7L4642.7 15025" stroke="white" stroke-width="46"/>
<path d="M-451 16455.7L4642.7 15373" stroke="white" stroke-width="46"/>
<path d="M-451 16152.7L4642.7 15070" stroke="white" stroke-width="34"/>
<path d="M-451 16410.7L4642.7 15328" stroke="white" stroke-width="34"/>
<path d="M-451 16372.7L4642.7 15290" stroke="white" stroke-width="34"/>
<path d="M-429 16178.7L4664.7 15096" stroke="white" stroke-width="22"/>
<path d="M-429 16335.7L4664.7 15253" stroke="white" stroke-width="22"/>
<path d="M-368 16298.7L4725.7 15216" stroke="white" stroke-width="22"/>
<path d="M-429 16285.7L4664.7 15203" stroke="white" stroke-width="22"/>
<path d="M-429 16199.7L4664.7 15117" stroke="white" stroke-width="13"/>
<path d="M-429 16265.7L4664.7 15183" stroke="white" stroke-width="13"/>
<path d="M-429 16211.7L4664.7 15129" stroke="white" stroke-width="7"/>
<path d="M-429 16253.7L4664.7 15171" stroke="white" stroke-width="7"/>
<path d="M-429 16220.7L4664.7 15138" stroke="white" stroke-width="7"/>
<path d="M-429 16244.7L4664.7 15162" stroke="white" stroke-width="7"/>
<path d="M-429 16227.7L4664.7 15145" stroke="white" stroke-width="3"/>
<path d="M-429 16232.7L4664.7 15150" stroke="white" stroke-width="3"/>
<path d="M-429 16237.7L4664.7 15155" stroke="white" stroke-width="3"/>
<path d="M-451 16755.7L4642.7 15673" stroke="white" stroke-width="133"/>
<path d="M-451 16893.7L4642.7 15811" stroke="white" stroke-width="133"/>
<path d="M-451 17031.7L4642.7 15949" stroke="white" stroke-width="133"/>
<path d="M-451 17697.7L4642.7 16615" stroke="white" stroke-width="133"/>
<path d="M-451 17133.7L4642.7 16051" stroke="white" stroke-width="60"/>
<path d="M-451 17594.7L4642.7 16512" stroke="white" stroke-width="60"/>
<path d="M-451 17189.7L4642.7 16107" stroke="white" stroke-width="46"/>
<path d="M-451 17537.7L4642.7 16455" stroke="white" stroke-width="46"/>
<path d="M-451 17234.7L4642.7 16152" stroke="white" stroke-width="34"/>
<path d="M-451 17492.7L4642.7 16410" stroke="white" stroke-width="34"/>
<path d="M-451 17454.7L4642.7 16372" stroke="white" stroke-width="34"/>
<path d="M-429 17260.7L4664.7 16178" stroke="white" stroke-width="22"/>
<path d="M-429 17417.7L4664.7 16335" stroke="white" stroke-width="22"/>
<path d="M-368 17380.7L4725.7 16298" stroke="white" stroke-width="22"/>
<path d="M-429 17367.7L4664.7 16285" stroke="white" stroke-width="22"/>
<path d="M-429 17281.7L4664.7 16199" stroke="white" stroke-width="13"/>
<path d="M-429 17347.7L4664.7 16265" stroke="white" stroke-width="13"/>
<path d="M-429 17293.7L4664.7 16211" stroke="white" stroke-width="7"/>
<path d="M-429 17335.7L4664.7 16253" stroke="white" stroke-width="7"/>
<path d="M-429 17302.7L4664.7 16220" stroke="white" stroke-width="7"/>
<path d="M-429 17326.7L4664.7 16244" stroke="white" stroke-width="7"/>
<path d="M-429 17309.7L4664.7 16227" stroke="white" stroke-width="3"/>
<path d="M-429 17314.7L4664.7 16232" stroke="white" stroke-width="3"/>
<path d="M-630 17592.7L4463.7 16510" stroke="white" stroke-width="3"/>
<path d="M-451 17838.7L4642.7 16756" stroke="white" stroke-width="133"/>
<path d="M-451 17976.7L4642.7 16894" stroke="white" stroke-width="133"/>
<path d="M-451 18642.7L4642.7 17560" stroke="white" stroke-width="133"/>
<path d="M-451 18078.7L4642.7 16996" stroke="white" stroke-width="60"/>
<path d="M-451 18539.7L4642.7 17457" stroke="white" stroke-width="60"/>
<path d="M-451 18134.7L4642.7 17052" stroke="white" stroke-width="46"/>
<path d="M-451 18482.7L4642.7 17400" stroke="white" stroke-width="46"/>
<path d="M-451 18179.7L4642.7 17097" stroke="white" stroke-width="34"/>
<path d="M-451 18437.7L4642.7 17355" stroke="white" stroke-width="34"/>
<path d="M-451 18399.7L4642.7 17317" stroke="white" stroke-width="34"/>
<path d="M-429 18205.7L4664.7 17123" stroke="white" stroke-width="22"/>
<path d="M-429 18362.7L4664.7 17280" stroke="white" stroke-width="22"/>
<path d="M-368 18325.7L4725.7 17243" stroke="white" stroke-width="22"/>
<path d="M-429 18312.7L4664.7 17230" stroke="white" stroke-width="22"/>
<path d="M-429 18226.7L4664.7 17144" stroke="white" stroke-width="13"/>
<path d="M-429 18292.7L4664.7 17210" stroke="white" stroke-width="13"/>
<path d="M-429 18238.7L4664.7 17156" stroke="white" stroke-width="7"/>
<path d="M-429 18280.7L4664.7 17198" stroke="white" stroke-width="7"/>
<path d="M-429 18247.7L4664.7 17165" stroke="white" stroke-width="7"/>
<path d="M-429 18271.7L4664.7 17189" stroke="white" stroke-width="7"/>
<path d="M-429 18254.7L4664.7 17172" stroke="white" stroke-width="3"/>
<path d="M-429 18259.7L4664.7 17177" stroke="white" stroke-width="3"/>
<path d="M-429 18264.7L4664.7 17182" stroke="white" stroke-width="3"/>
<path d="M-1106 18895.7L5681 17449V20051H-1106V18895.7Z" fill="white"/>
<path d="M-1180 20013.7L5607 18567V21169H-1180V20013.7Z" fill="white"/>
<path d="M-117 18782.7L4976.7 17700" stroke="#5648EE" stroke-width="133"/>
<path d="M-117 18908.7L4976.7 17826" stroke="#5648EE" stroke-width="133"/>
<path d="M-117 19045.7L4976.7 17963" stroke="#5648EE" stroke-width="133"/>
<path d="M-117 19123.7L4976.7 18041" stroke="#5648EE" stroke-width="133"/>
<path d="M-117 19261.7L4976.7 18179" stroke="#5648EE" stroke-width="133"/>
<path d="M-117 19399.7L4976.7 18317" stroke="#5648EE" stroke-width="133"/>
<path d="M-117 20065.7L4976.7 18983" stroke="#5648EE" stroke-width="133"/>
<path d="M-117 19501.7L4976.7 18419" stroke="#5648EE" stroke-width="60"/>
<path d="M-117 19962.7L4976.7 18880" stroke="#5648EE" stroke-width="60"/>
<path d="M-117 19557.7L4976.7 18475" stroke="#5648EE" stroke-width="46"/>
<path d="M-117 19905.7L4976.7 18823" stroke="#5648EE" stroke-width="46"/>
<path d="M-117 19602.7L4976.7 18520" stroke="#5648EE" stroke-width="34"/>
<path d="M-117 19860.7L4976.7 18778" stroke="#5648EE" stroke-width="34"/>
<path d="M-117 19822.7L4976.7 18740" stroke="#5648EE" stroke-width="34"/>
<path d="M-95 19628.7L4998.7 18546" stroke="#5648EE" stroke-width="22"/>
<path d="M-95 19785.7L4998.7 18703" stroke="#5648EE" stroke-width="22"/>
<path d="M-34 19748.7L5059.7 18666" stroke="#5648EE" stroke-width="22"/>
<path d="M-95 19735.7L4998.7 18653" stroke="#5648EE" stroke-width="22"/>
<path d="M-95 19649.7L4998.7 18567" stroke="#5648EE" stroke-width="13"/>
<path d="M-95 19715.7L4998.7 18633" stroke="#5648EE" stroke-width="13"/>
<path d="M-95 19661.7L4998.7 18579" stroke="#5648EE" stroke-width="7"/>
<path d="M-95 19703.7L4998.7 18621" stroke="#5648EE" stroke-width="7"/>
<path d="M-95 19670.7L4998.7 18588" stroke="#5648EE" stroke-width="7"/>
<path d="M-95 19694.7L4998.7 18612" stroke="#5648EE" stroke-width="7"/>
<path d="M-95 19677.7L4998.7 18595" stroke="#5648EE" stroke-width="3"/>
<path d="M-95 19682.7L4998.7 18600" stroke="#5648EE" stroke-width="3"/>
<path d="M-95 19687.7L4998.7 18605" stroke="#5648EE" stroke-width="3"/>
<path d="M-117 20205.7L4976.7 19123" stroke="#5648EE" stroke-width="133"/>
<path d="M-117 20343.7L4976.7 19261" stroke="#5648EE" stroke-width="133"/>
<path d="M-117 20481.7L4976.7 19399" stroke="#5648EE" stroke-width="133"/>
<path d="M-117 21147.7L4976.7 20065" stroke="#5648EE" stroke-width="133"/>
<path d="M-117 20583.7L4976.7 19501" stroke="#5648EE" stroke-width="60"/>
<path d="M-117 21044.7L4976.7 19962" stroke="#5648EE" stroke-width="60"/>
<path d="M-117 20639.7L4976.7 19557" stroke="#5648EE" stroke-width="46"/>
<path d="M-117 20987.7L4976.7 19905" stroke="#5648EE" stroke-width="46"/>
<path d="M-117 20684.7L4976.7 19602" stroke="#5648EE" stroke-width="34"/>
<path d="M-117 20942.7L4976.7 19860" stroke="#5648EE" stroke-width="34"/>
<path d="M-117 20904.7L4976.7 19822" stroke="#5648EE" stroke-width="34"/>
<path d="M-95 20710.7L4998.7 19628" stroke="#5648EE" stroke-width="22"/>
<path d="M-95 20867.7L4998.7 19785" stroke="#5648EE" stroke-width="22"/>
<path d="M-34 20830.7L5059.7 19748" stroke="#5648EE" stroke-width="22"/>
<path d="M-95 20817.7L4998.7 19735" stroke="#5648EE" stroke-width="22"/>
<path d="M-95 20731.7L4998.7 19649" stroke="#5648EE" stroke-width="13"/>
<path d="M-95 20797.7L4998.7 19715" stroke="#5648EE" stroke-width="13"/>
<path d="M-95 20743.7L4998.7 19661" stroke="#5648EE" stroke-width="7"/>
<path d="M-95 20785.7L4998.7 19703" stroke="#5648EE" stroke-width="7"/>
<path d="M-95 20752.7L4998.7 19670" stroke="#5648EE" stroke-width="7"/>
<path d="M-95 20776.7L4998.7 19694" stroke="#5648EE" stroke-width="7"/>
<path d="M-95 20759.7L4998.7 19677" stroke="#5648EE" stroke-width="3"/>
<path d="M-95 20764.7L4998.7 19682" stroke="#5648EE" stroke-width="3"/>
<path d="M-95 20769.7L4998.7 19687" stroke="#5648EE" stroke-width="3"/>
<path d="M-117 21288.7L4976.7 20206" stroke="#5648EE" stroke-width="133"/>
<path d="M-117 21426.7L4976.7 20344" stroke="#5648EE" stroke-width="133"/>
<path d="M-117 22092.7L4976.7 21010" stroke="#5648EE" stroke-width="133"/>
<path d="M-117 21528.7L4976.7 20446" stroke="#5648EE" stroke-width="60"/>
<path d="M-247 18702.7L4846.7 17620" stroke="white" stroke-width="60"/>
<path d="M-247 18779.7L4846.7 17697" stroke="white" stroke-width="47"/>
<path d="M-247 18832.7L4846.7 17750" stroke="white" stroke-width="37"/>
<path d="M-247 18866.7L4846.7 17784" stroke="white" stroke-width="18"/>
<path d="M-247 18884.7L4846.7 17802" stroke="white" stroke-width="7"/>
<path d="M-247 18893.7L4846.7 17811" stroke="white" stroke-width="4"/>
<path d="M-247 18898.7L4846.7 17816" stroke="white" stroke-width="2"/>
<path d="M-247 18901.7L4846.7 17819" stroke="white"/>
<path d="M-117 21989.7L4976.7 20907" stroke="#5648EE" stroke-width="60"/>
<path d="M-117 21584.7L4976.7 20502" stroke="#5648EE" stroke-width="46"/>
<path d="M-117 21932.7L4976.7 20850" stroke="#5648EE" stroke-width="46"/>
<path d="M-117 21629.7L4976.7 20547" stroke="#5648EE" stroke-width="34"/>
<path d="M-117 21887.7L4976.7 20805" stroke="#5648EE" stroke-width="34"/>
<path d="M-117 21849.7L4976.7 20767" stroke="#5648EE" stroke-width="34"/>
<path d="M-95 21655.7L4998.7 20573" stroke="#5648EE" stroke-width="22"/>
<path d="M-95 21812.7L4998.7 20730" stroke="#5648EE" stroke-width="22"/>
<path d="M-34 21775.7L5059.7 20693" stroke="#5648EE" stroke-width="22"/>
<path d="M-95 21762.7L4998.7 20680" stroke="#5648EE" stroke-width="22"/>
<path d="M-95 21676.7L4998.7 20594" stroke="#5648EE" stroke-width="13"/>
<path d="M-95 21742.7L4998.7 20660" stroke="#5648EE" stroke-width="13"/>
<path d="M-95 21688.7L4998.7 20606" stroke="#5648EE" stroke-width="7"/>
<path d="M-95 21730.7L4998.7 20648" stroke="#5648EE" stroke-width="7"/>
<path d="M-95 21697.7L4998.7 20615" stroke="#5648EE" stroke-width="7"/>
<path d="M-95 21721.7L4998.7 20639" stroke="#5648EE" stroke-width="7"/>
<path d="M-95 21704.7L4998.7 20622" stroke="#5648EE" stroke-width="3"/>
<path d="M-95 21709.7L4998.7 20627" stroke="#5648EE" stroke-width="3"/>
<path d="M-95 21714.7L4998.7 20632" stroke="#5648EE" stroke-width="3"/>
</g>
<defs>
<clipPath id="clip0_315_2">
<rect width="3840" height="22887" fill="white"/>
</clipPath>
</defs>
</svg>
